<?xml version="1.0" standalone="no"?><!DOCTYPE svg PUBLIC "-//W3C//DTD SVG 1.1//EN" "http://www.w3.org/Graphics/SVG/1.1/DTD/svg11.dtd"><svg t="1531102410961" class="icon" style="" viewBox="0 0 1024 1024" version="1.1" xmlns="http://www.w3.org/2000/svg" p-id="7110" xmlns:xlink="http://www.w3.org/1999/xlink" width="256" height="256"><defs><style type="text/css"></style></defs><path d="M913.15 260.51a480.53 480.53 0 0 0-203.8-174 40 40 0 0 0-32.92 72.91C819.53 224.06 912 367.23 912 524.19c0 220.56-179.44 400-400 400s-400-179.44-400-400c0-157 92.47-300.14 235.57-364.75a40 40 0 0 0-32.92-72.91 480 480 0 1 0 598.5 174z" fill="#FF8429" p-id="7111"></path><path d="M172.06 524.19a15 15 0 1 0-30 0 369.94 369.94 0 1 0 739.88 0 369 369 0 0 0-120.59-273.27 15 15 0 1 0-20.23 22.16 340.79 340.79 0 0 1 110.82 251.11c0 187.44-152.5 339.94-339.94 339.94S172.06 711.64 172.06 524.19z" fill="#FF8429" p-id="7112"></path><path d="M692.89 218.75m-15 0a15 15 0 1 0 30 0 15 15 0 1 0-30 0Z" fill="#FF8429" p-id="7113"></path><path d="M512 595.26a40 40 0 0 0 40-40V59.81a40 40 0 0 0-80 0v495.45a40 40 0 0 0 40 40z" fill="#00CEDD" p-id="7114"></path></svg>