<?xml version="1.0" standalone="no"?><!DOCTYPE svg PUBLIC "-//W3C//DTD SVG 1.1//EN" "http://www.w3.org/Graphics/SVG/1.1/DTD/svg11.dtd"><svg t="1531120083688" class="icon" style="" viewBox="0 0 1024 1024" version="1.1" xmlns="http://www.w3.org/2000/svg" p-id="1955" xmlns:xlink="http://www.w3.org/1999/xlink" width="256" height="256"><defs><style type="text/css"></style></defs><path d="M214.304 829.161c0 71.209-1.795 76.205 76.948 76.205h406.428c76.127 0 85.637-2.112 85.637-76.205v-411.525h-569.012v411.525z" fill="#CFCF5A" p-id="1956"></path><path d="M336.24 769.902c-7.472 0-13.53 6.058-13.53 13.53v27.119c0.397 7.173 6.313 12.841 13.55 12.841s13.152-5.664 13.549-12.811l0.001-27.154c-0.031-7.472-6.094-13.521-13.568-13.53zM336.24 471.838c-0.019 0-0.037 0-0.058 0-7.44 0-13.472 6.031-13.472 13.472 0 0.021 0 0.042 0 0.061v230.331c0 7.485 6.065 13.55 13.55 13.55s13.55-6.065 13.55-13.55v-230.317c0-0.003 0-0.007 0-0.020 0-7.472-6.058-13.53-13.53-13.53-0.007 0-0.025 0-0.042 0zM498.82 471.838c-0.006 0-0.023 0-0.037 0-7.462 0-13.509 6.052-13.509 13.509 0 0.004 0 0.007 0 0.021v325.165c0.286 7.261 6.237 13.036 13.54 13.036s13.254-5.775 13.54-13.010v-325.171c0-0.003 0-0.007 0-0.020 0-7.472-6.058-13.53-13.53-13.53 0 0 0 0 0 0zM661.383 471.838c-0.006 0-0.023 0-0.037 0-7.462 0-13.509 6.052-13.509 13.509 0 0.004 0 0.007 0 0.021v325.165c0 0.004 0 0.019 0 0.023 0 7.472 6.058 13.53 13.53 13.53 2.512 0 4.861-0.685 6.877-1.878 4.016-2.342 6.713-6.694 6.713-11.681 0 0 0-0.001 0-0.001v-325.148c-0.001-3.743-1.525-7.123-3.982-9.57-2.435-2.46-5.813-3.982-9.547-3.982-0.007 0-0.027 0-0.042 0z" fill="#848D2F" p-id="1957"></path><path d="M575.789 119.59h-162.585c-67.399 0-75.833 8.882-76.812 67.71h324.601c-2.597-60.78-20.385-67.71-85.209-67.71z" fill="#CFCF5A" p-id="1958"></path><path d="M913.156 220.063c-20.229-20.239-48.18-32.757-79.052-32.764h-118.949c-3.67-82.474-34.384-121.914-139.388-121.914h-162.585c-97.137 0-127.419 31.26-130.817 121.914h-105.318c0 0 0 0 0 0-61.732 0-111.779 50.045-111.779 111.779 0 0.004 0 0.007 0 0.021v6.793c0.023 55.713 40.844 101.887 94.205 110.274l0.626 412.992c0 112.287 33.507 130.41 131.127 130.41h406.428c105.278 0 139.835-26.809 139.835-130.41v-411.681c60.223-1.858 108.336-51.107 108.364-111.601v-6.795c0-0.033 0-0.076 0-0.117 0-30.817-12.498-58.715-32.703-78.899zM413.184 119.59h162.585c64.823 0 82.607 6.913 85.209 67.71h-324.58c0.975-58.829 9.39-67.71 76.794-67.71zM783.315 829.161c0 74.097-9.491 76.205-85.637 76.205h-406.428c-78.745 0-76.948-4.996-76.948-76.205v-411.525h569.034v411.525zM891.7 305.874c-0.019 15.908-6.461 30.31-16.874 40.75-10.403 10.377-24.793 16.81-40.681 16.81-0.004 0-0.019 0-0.023 0h-657.050c-15.903-0.001-30.295-6.433-40.734-16.835-10.406-10.432-16.842-24.833-16.844-40.738v-6.782c0-0.003 0-0.007 0-0.020 0-31.79 25.767-57.562 57.562-57.562 0.004 0 0.007 0 0.021 0h657.050c0 0 0 0 0 0 31.799 0 57.579 25.778 57.579 57.579v6.795z" fill="#504C23" p-id="1959"></path></svg>