<?xml version="1.0" standalone="no"?><!DOCTYPE svg PUBLIC "-//W3C//DTD SVG 1.1//EN" "http://www.w3.org/Graphics/SVG/1.1/DTD/svg11.dtd"><svg t="1531101962127" class="icon" style="" viewBox="0 0 1024 1024" version="1.1" xmlns="http://www.w3.org/2000/svg" p-id="1516" xmlns:xlink="http://www.w3.org/1999/xlink" width="256" height="256"><defs><style type="text/css"></style></defs><path d="M766.678 142.804L513.55 469.882 246.98 129.372s-82.886 103.05-4.483 212.8c78.405 109.78 271.054 331.542 271.054 331.542L793.554 317.54c0 0.001 44.81-82.886-26.876-174.736zM511.504 605.423c-21.667 0-39.222-17.556-39.222-39.225 0-21.666 17.554-39.223 39.222-39.223 21.669 0 39.225 17.557 39.225 39.223 0 21.669-17.556 39.225-39.225 39.225zM676.606 613.493c-72.071 0-130.497 58.426-130.497 130.497s58.427 130.497 130.497 130.497S807.104 816.06 807.104 743.99s-58.426-130.497-130.498-130.497z m0 196.185c-36.277 0-65.687-29.41-65.687-65.687s29.41-65.687 65.687-65.687 65.688 29.41 65.688 65.687-29.41 65.687-65.688 65.687zM349.46 613.493c-72.072 0-130.498 58.426-130.498 130.497S277.39 874.487 349.46 874.487 479.957 816.06 479.957 743.99 421.53 613.493 349.46 613.493z m0 196.185c-36.278 0-65.687-29.41-65.687-65.687s29.41-65.687 65.687-65.687 65.687 29.41 65.687 65.687-29.41 65.687-65.687 65.687z" p-id="1517"></path></svg>