<?xml version="1.0" standalone="no"?><!DOCTYPE svg PUBLIC "-//W3C//DTD SVG 1.1//EN" "http://www.w3.org/Graphics/SVG/1.1/DTD/svg11.dtd"><svg t="1531124574702" class="icon" style="" viewBox="0 0 1024 1024" version="1.1" xmlns="http://www.w3.org/2000/svg" p-id="1506" xmlns:xlink="http://www.w3.org/1999/xlink" width="256" height="256"><defs><style type="text/css"></style></defs><path d="M834.144 146H189.864c-25.416 0-46.016 25.272-46.016 56.464v588.624L223.648 880h610.496c25.408 0 46.016-25.272 46.016-56.472V202.464c0-31.192-20.616-56.464-46.016-56.464z" fill="#3678BF" p-id="1507"></path><path d="M172 207.216h40.664V264H172z" fill="#707272" p-id="1508"></path><path d="M174 230.952h36.664v30.76H174z" fill="#A5A5A5" p-id="1509"></path><path d="M258 356.768v157.048c0 14.456 8.64 26.176 19.28 26.176h501.432c10.656 0 19.288-11.728 19.288-26.176V356.768h-540zM782.008 866.36V660.344c0-18.96-7.848-34.344-17.536-34.344H308.456c-9.688 0-17.544 15.384-17.544 34.344v206.016h491.096z" fill="#245B8E" p-id="1510"></path><path d="M680 866.36V668.912c0-18.168-6.128-32.912-13.656-32.912H311.232c-7.544 0-13.664 14.744-13.664 32.912v197.448H680z" fill="#EAEAEA" p-id="1511"></path><path d="M436.416 818V677.44c0-12.936-1.624-23.44-3.608-23.44H338.992c-1.992 0-3.608 10.504-3.608 23.44v140.56h101.032z" fill="#A5A5A5" p-id="1512"></path><path d="M432.808 654h-22.392v137.336h-75.032v26.664h101.032V677.44c0-12.936-1.616-23.44-3.608-23.44z" fill="#878787" p-id="1513"></path><path d="M296.576 364.768V489.36c0 17.192 17.256 31.16 38.56 31.16h385.72c21.296 0 38.56-13.96 38.56-31.16V364.768H296.576z" fill="#EAEAEA" p-id="1514"></path><path d="M258 153.552v224.944c0 20.712 8.64 37.504 19.28 37.504h501.432c10.656 0 19.288-16.792 19.288-37.504V153.552h-540z" fill="#245B8E" p-id="1515"></path><path d="M296.568 153.552v256.344c0 35.384 17.256 64.096 38.56 64.096h385.712c21.296 0 38.568-28.712 38.568-64.096V153.552H296.568z" fill="#EAEAEA" p-id="1516"></path><path d="M324 249.496h408v6.72h-408zM320.912 299.216h408v6.72h-408zM320.912 348.936h408v6.72h-408zM320.912 398.664h408v6.72h-408zM320.912 448.384h408v6.72h-408z" fill="#ACB8BC" p-id="1517"></path><path d="M920.84 745.984L624.648 363.776c-0.024-0.024-0.04-0.04-0.064-0.04L510.44 457.272l295.832 381.776c9.192-9.152 30.464-27.608 55.936-48.304 25.456-20.664 47.808-37.648 58.632-44.76z" fill="#D8A506" p-id="1518"></path><path d="M586.016 393.904l281.816 359.504-38.92 33.096L547.12 426.968z" fill="#232323" p-id="1519"></path><path d="M957.304 792.48c1.728 2.296-22.512 24.96-54.16 50.648-31.64 25.712-58.696 44.712-60.44 42.44l-49.608-64.04c-1.752-2.248 22.44-24.888 54.096-50.584 31.648-25.704 58.728-44.728 60.464-42.44l49.648 63.976z" fill="#C94039" p-id="1520"></path><path d="M958.488 792.264c0.464 0.552-24.632 22.032-56.088 47.952-31.448 25.952-57.344 46.576-57.832 46.048l-13.984-14.8c-0.496-0.512 24.568-21.936 56.04-47.912 31.456-25.928 57.408-46.592 57.832-46.04l14.032 14.752z" fill="#992926" p-id="1521"></path><path d="M624.968 364.016L511.104 457.768l-11.776-131.728z" fill="#BFA550" p-id="1522"></path><path d="M545.712 340.056l-42.048 34.616-4.336-48.632z" fill="#1E1E1E" p-id="1523"></path></svg>