<?xml version="1.0" standalone="no"?><!DOCTYPE svg PUBLIC "-//W3C//DTD SVG 1.1//EN" "http://www.w3.org/Graphics/SVG/1.1/DTD/svg11.dtd"><svg t="1531102037237" class="icon" style="" viewBox="0 0 1024 1024" version="1.1" xmlns="http://www.w3.org/2000/svg" p-id="3002" xmlns:xlink="http://www.w3.org/1999/xlink" width="256" height="256"><defs><style type="text/css"></style></defs><path d="M927.377 793.232L717.773 583.624c73.99-132.42 54.809-302.901-57.762-415.47-135.812-135.812-356.026-135.812-491.852 0-135.82 135.834-135.82 356.048 0 491.873 112.56 112.566 283.042 131.739 415.454 57.737L793.237 927.38c37.045 37.053 92.82 41.339 124.558 9.579l19.162-19.162c31.756-31.747 27.472-87.521-9.58-124.565zM215.785 612.385c-109.51-109.508-109.51-287.064 0-396.59 109.533-109.516 287.088-109.516 396.591 0 109.53 109.526 109.53 287.081 0 396.59-109.503 109.526-287.066 109.526-396.591 0zM601.688 252.79l-20.823-24.19-77.283 66.483c-6.713-3.761-14.331-6.084-22.568-6.084-25.715 0-46.564 20.844-46.564 46.543 0 15.607 7.755 29.336 19.538 37.782l-31.22 112.79c-4.76 1.243-9.25 3.143-13.291 5.73l-67.543-39.324c1.542-4.618 2.578-9.482 2.578-14.614 0-25.699-20.858-46.55-46.554-46.55-25.707 0-46.551 20.851-46.551 46.55 0 11.553 4.362 21.982 11.337 30.134l-51.629 85.847 27.354 16.456 52.088-86.636c2.43 0.393 4.86 0.748 7.4 0.748 8.742 0 16.82-2.56 23.8-6.74l68.378 39.809c-1.308 4.288-2.224 8.756-2.224 13.479 0 25.71 20.841 46.553 46.551 46.553 25.704 0 46.551-20.844 46.551-46.553 0-18.301-10.669-33.974-26.022-41.578l29.8-107.705c23.904-1.963 42.763-21.763 42.763-46.177 0-5.76-1.182-11.213-3.1-16.3l77.234-66.453z" p-id="3003"></path></svg>