<?xml version="1.0" standalone="no"?><!DOCTYPE svg PUBLIC "-//W3C//DTD SVG 1.1//EN" "http://www.w3.org/Graphics/SVG/1.1/DTD/svg11.dtd"><svg t="1531119743735" class="icon" style="" viewBox="0 0 1024 1024" version="1.1" xmlns="http://www.w3.org/2000/svg" p-id="706" xmlns:xlink="http://www.w3.org/1999/xlink" width="256" height="256"><defs><style type="text/css"></style></defs><path d="M322 294h317c23.2 0 42 18.8 42 42v233l-70.7 58.1c-1.5 1.2-3.1 2.4-4.8 3.4L500 695H322c-23.2 0-42-18.8-42-42V336c0-23.2 18.8-42 42-42zM264 906l362-268c-28.7 96.7-63.3 161.3-104 194s-62.3 41-65 25l-28-30-140 100-25-21z" fill="#FFE1E1" p-id="707"></path><path d="M413.8 738.1l244.2-183c11.1-8.3 26.7-6 35 5 4.2 5.6 5.9 12.8 4.5 19.7-11.6 60.1-37.9 115-78.7 164.6-42.2 51.2-87.5 97.4-136 138.5-10.1 8.5-25.2 7.3-33.7-2.7l-26.6-31-121.7 91.7c-17.6 13.3-42.7 9.8-56-7.9l-8.2-10.9c-13.3-17.6-9.8-42.7 7.9-56L360 779H253.4c-40.6 0-73.4-32.8-73.4-73.4V252.4c0-40.6 32.8-73.4 73.4-73.4h453.3c40.5 0 73.3 32.8 73.3 73.4V475h-40.9V252.4c0-17.9-14.5-32.5-32.5-32.5H253.4c-17.9 0-32.5 14.5-32.5 32.5v453.3c0 17.9 14.5 32.5 32.5 32.5h160.4zM858 751.5V784c0 46.4-37.6 84-84 84h-16.5v-36H774c26.5 0 48-21.5 48-48v-32.5h36zM688 832h37v36h-37v-36z m-71 0h37v36h-37v-36z m-71 0h37v36h-37v-36z m275-155h37v36h-37v-36z m0-70h37v36h-37v-36z m0-70h37v36h-37v-36zM409.4 786.9l-143.3 108c-1.8 1.3-2.1 3.8-0.8 5.6l8.2 10.9c1.3 1.8 3.8 2.1 5.6 0.8l148.7-112.1 40.8 47.6c43.4-37.7 84.2-79.8 122.5-126.2 30.3-36.7 51.6-76.5 64.1-119.3L410.4 785.6l-1 1.3z" fill="#5483E3" p-id="708"></path></svg>