<?xml version="1.0" standalone="no"?><!DOCTYPE svg PUBLIC "-//W3C//DTD SVG 1.1//EN" "http://www.w3.org/Graphics/SVG/1.1/DTD/svg11.dtd"><svg t="1531101934247" class="icon" style="" viewBox="0 0 1024 1024" version="1.1" xmlns="http://www.w3.org/2000/svg" p-id="1146" xmlns:xlink="http://www.w3.org/1999/xlink" width="256" height="256"><defs><style type="text/css"></style></defs><path d="M981.333333 938.666667h-42.666666v42.666666a42.666667 42.666667 0 0 1-85.333334 0v-42.666666H256a170.666667 170.666667 0 0 1-170.666667-170.666667V170.666667H42.666667a42.666667 42.666667 0 0 1 0-85.333334h42.666666V42.666667a42.666667 42.666667 0 0 1 85.333334 0v42.666666h469.333333a42.666667 42.666667 0 0 1 0 85.333334H170.666667v597.333333c0 7.594667 1.322667 14.805333 3.157333 21.802667L875.648 88.021333C893.781333 69.888 921.984 68.650667 938.666667 85.333333s15.445333 44.885333-2.688 63.018667L234.197333 850.176c6.997333 1.834667 14.208 3.157333 21.802667 3.157333h597.333333V426.666667a42.666667 42.666667 0 0 1 85.333334 0v426.666666h42.666666a42.666667 42.666667 0 0 1 0 85.333334z" p-id="1147"></path></svg>