<?xml version="1.0" standalone="no"?><!DOCTYPE svg PUBLIC "-//W3C//DTD SVG 1.1//EN" "http://www.w3.org/Graphics/SVG/1.1/DTD/svg11.dtd"><svg t="1531102530238" class="icon" style="" viewBox="0 0 1024 1024" version="1.1" xmlns="http://www.w3.org/2000/svg" p-id="7564" xmlns:xlink="http://www.w3.org/1999/xlink" width="256" height="256"><defs><style type="text/css"></style></defs><path d="M512 0C229.284469 0 0 229.284469 0 512S229.284469 1024 512 1024 1024 794.715531 1024 512 794.715531 0 512 0z m302.394637 552.27352C791.969609 712.681117 670.46257 820.344134 512 820.344134c-120.248492 0-227.568268-70.478659-278.024581-175.281341l-16.246704 38.328492c-4.462123 10.41162-14.530503 16.704358-25.17095 16.704357-3.546816 0-7.208045-0.68648-10.640447-2.173854-13.844022-5.949497-20.365587-21.967374-14.416089-35.811397l43.934749-103.429721c0-0.114413 0.114413-0.228827 0.114413-0.34324v-0.114413c0.114413-0.114413 0.228827-0.34324 0.228827-0.457654 0.68648-1.487374 1.372961-2.860335 2.288268-4.233296 0.34324-0.457654 0.800894-0.915307 1.144134-1.372961 0.68648-0.915307 1.487374-1.830615 2.288268-2.745922 0.457654-0.457654 1.029721-0.800894 1.487375-1.258547 0.800894-0.68648 1.716201-1.487374 2.631508-2.059441 0.572067-0.34324 1.144134-0.572067 1.601788-0.915308 1.029721-0.572067 1.945028-1.144134 2.974748-1.601787 0.800894-0.34324 1.601788-0.457654 2.402682-0.686481 0.800894-0.228827 1.601788-0.572067 2.517095-0.800894h0.228827c0.68648-0.114413 1.372961-0.114413 2.059441-0.228827 4.805363-0.572067 9.496313 0 13.729609 1.830615h0.114413l103.887375 44.049162c13.844022 5.949497 20.365587 21.967374 14.416089 35.811397-4.462123 10.41162-14.530503 16.704358-25.17095 16.704357-3.546816 0-7.208045-0.68648-10.640447-2.173855l-48.511285-20.594413c40.61676 88.327151 130.088045 148.165363 230.543017 148.165363 132.033073 0 229.513296-86.839777 248.277095-221.046704 2.059441-14.988156 16.017877-25.399777 30.777207-23.225922 15.216983 2.173855 25.628603 16.017877 23.569162 30.891621z m42.218547-190.498324l-43.934748 103.315307c-1.029721 2.517095-2.402682 4.805363-4.118883 6.864804-0.34324 0.34324-0.572067 0.68648-0.915307 1.029721-1.601788 1.830615-3.317989 3.432402-5.37743 4.69095l-0.686481 0.34324c-1.716201 1.029721-3.661229 1.945028-5.606257 2.631508-0.572067 0.228827-1.144134 0.34324-1.716201 0.572067-0.457654 0.114413-0.915307 0.34324-1.372961 0.457654-1.830615 0.34324-3.661229 0.572067-5.491843 0.572067-0.68648 0-1.372961-0.114413-2.059442-0.228827-1.144134-0.114413-2.173855-0.114413-3.203575-0.34324l-1.029721-0.34324c-1.372961-0.34324-2.860335-0.68648-4.118882-1.258548h-0.228827L672.750838 436.029497c-13.844022-5.949497-20.365587-21.967374-14.416089-35.811396 5.949497-13.844022 21.967374-20.365587 35.811396-14.41609l48.511285 20.594414C701.926257 318.069274 612.454972 258.116648 512 258.116648c-132.033073 0-229.513296 86.725363-248.277095 221.046704-1.945028 13.615196-13.615196 23.569162-27.001564 23.569162-1.258547 0-2.517095-0.114413-3.775643-0.228827-14.988156-2.059441-25.399777-15.903464-23.225921-30.777207C232.144804 311.318883 353.651844 203.655866 512.114413 203.655866c120.248492 0 227.568268 70.478659 278.024581 175.281341l16.246704-38.328492c5.949497-13.844022 21.967374-20.365587 35.811397-14.416089 13.729609 5.606257 20.251173 21.738547 14.416089 35.58257z" fill="#1A70CC" p-id="7565"></path></svg>