<?xml version="1.0" standalone="no"?><!DOCTYPE svg PUBLIC "-//W3C//DTD SVG 1.1//EN" "http://www.w3.org/Graphics/SVG/1.1/DTD/svg11.dtd"><svg t="1531018929751" class="icon" style="" viewBox="0 0 1024 1024" version="1.1" xmlns="http://www.w3.org/2000/svg" p-id="1782" xmlns:xlink="http://www.w3.org/1999/xlink" width="256" height="256"><defs><style type="text/css"></style></defs><path d="M828 822.4c-18.4 18.4-48.8 18.4-68 0L611.2 672.8c-44.8 32-100 51.2-159.2 51.2-150.4 0-272-121.6-272-272 0-150.4 121.6-272 272-272 150.4 0 272 121.6 272 272 0 56-16.8 108-46.4 151.2l150.4 150.4C847.2 772.8 847.2 803.2 828 822.4zM452 276c-97.6 0-176 78.4-176 176s78.4 176 176 176c96.8 0 176-78.4 176-176S548.8 276 452 276z" p-id="1783"></path></svg>