<?xml version="1.0" standalone="no"?><!DOCTYPE svg PUBLIC "-//W3C//DTD SVG 1.1//EN" "http://www.w3.org/Graphics/SVG/1.1/DTD/svg11.dtd"><svg t="1533259930704" class="icon" style="" viewBox="0 0 1024 1024" version="1.1" xmlns="http://www.w3.org/2000/svg" p-id="6175" xmlns:xlink="http://www.w3.org/1999/xlink" width="200" height="200"><defs><style type="text/css"></style></defs><path d="M546.613 436.317h-102.175v61.052h102.175v-61.052zM444.437 650.001h102.169v-61.053h-102.169v61.053zM887.186 650.001v-274.735h-68.115v122.106h-34.059v-30.526h-34.059v-30.526h-34.055v-61.054h-68.115v274.735h68.115v-152.63h34.055v30.526h34.059v30.527h34.055v91.579h68.115zM206.035 650.001h68.115v-274.735h-68.115v30.526h-34.059v30.527h-34.059v30.526h68.115v183.157zM853.125 172.983h-682.241v64.81h682.241v-64.81zM34.655 787.265v63.719h954.704v-63.719h-954.704z" fill="#2c2c2c" p-id="6176"></path></svg>