<?xml version="1.0" standalone="no"?><!DOCTYPE svg PUBLIC "-//W3C//DTD SVG 1.1//EN" "http://www.w3.org/Graphics/SVG/1.1/DTD/svg11.dtd"><svg t="1564378975941" class="icon" viewBox="0 0 1024 1024" version="1.1" xmlns="http://www.w3.org/2000/svg" p-id="2948" xmlns:xlink="http://www.w3.org/1999/xlink" width="128" height="128"><defs><style type="text/css">* { color: rgb(153, 153, 153) !important; text-shadow: rgb(0, 0, 0) 0px 0px 3px !important; box-shadow: none !important; background-color: transparent !important; border-color: rgb(68, 68, 68) !important; }
</style></defs><path d="M939.45856 511.65696c0-236.25216-191.52896-427.78624-427.78112-427.78624-236.25728 0-427.78624 191.53408-427.78624 427.78624 0 236.25728 191.52896 427.78624 427.78624 427.78624 236.25216 0 427.78112-191.52896 427.78112-427.78624z m81.92 0c0 281.4976-228.20352 509.70624-509.70112 509.70624-281.4976 0-509.70624-228.20864-509.70624-509.70624C1.9712 230.15936 230.17984 1.95072 511.67744 1.95072c281.4976 0 509.70112 228.20864 509.70112 509.70624z" fill="#304156" p-id="2949"></path><path d="M470.6816 42.9568a40.96 40.96 0 0 1 40.96-40.96c281.55392 0 509.70112 228.17792 509.70112 509.70624a40.96 40.96 0 0 1-40.96 40.96H511.6416a40.96 40.96 0 0 1-40.96-40.96V42.9568z m81.92 42.89536v384.89088h384.88576c-19.328-203.58656-181.28384-365.55776-384.88576-384.89088z" fill="#304156" p-id="2950"></path></svg>