<?xml version="1.0" standalone="no"?><!DOCTYPE svg PUBLIC "-//W3C//DTD SVG 1.1//EN" "http://www.w3.org/Graphics/SVG/1.1/DTD/svg11.dtd"><svg t="1531018479018" class="icon" style="" viewBox="0 0 1024 1024" version="1.1" xmlns="http://www.w3.org/2000/svg" p-id="1073" xmlns:xlink="http://www.w3.org/1999/xlink" width="256" height="256"><defs><style type="text/css"></style></defs><path d="M1.183187 509.985385a561.406033 561.406033 0 0 1 10.360876-107.574043 191.356442 191.356442 0 0 0 146.45931-99.451627 209.328087 209.328087 0 0 0 7.418899-186.112048A505.252639 505.252639 0 0 1 356.714759 0a186.943476 186.943476 0 0 0 315.111361 1.598901A506.148023 506.148023 0 0 1 862.479046 120.876897a209.455999 209.455999 0 0 0 9.145712 182.146774 191.22853 191.22853 0 0 0 140.703266 98.684155 563.260758 563.260758 0 0 1-3.965273 234.974455 191.868091 191.868091 0 0 0-136.737993 98.10855 209.200175 209.200175 0 0 0-14.070327 169.355568 505.892199 505.892199 0 0 1-196.2171 117.870964 186.303916 186.303916 0 0 0-294.197739 1.343077 504.613079 504.613079 0 0 1-196.472925-115.120855 209.455999 209.455999 0 0 0-12.791206-173.320842A191.420398 191.420398 0 0 0 15.317469 635.914809a560.446693 560.446693 0 0 1-14.134282-125.929424zM512 730.889513A219.305228 219.305228 0 1 0 293.078509 511.648242 219.11336 219.11336 0 0 0 512 730.889513z" fill="#2c2c2c" p-id="1074"></path></svg>