<?xml version="1.0" standalone="no"?><!DOCTYPE svg PUBLIC "-//W3C//DTD SVG 1.1//EN" "http://www.w3.org/Graphics/SVG/1.1/DTD/svg11.dtd"><svg t="1557962825495" class="icon" style="" viewBox="0 0 1072 1024" version="1.1" xmlns="http://www.w3.org/2000/svg" p-id="2030" xmlns:xlink="http://www.w3.org/1999/xlink" width="67" height="64"><defs><style type="text/css"></style></defs><path d="M633.904762 917.211429v85.869714L341.333333 877.714286V0l341.333334 146.285714v286.232381a273.16419 273.16419 0 0 0-163.498667 250.246095c0 67.34019 54.467048 156.525714 114.736762 234.447239z m390.095238-109.275429V877.714286v-69.778286z m0-269.750857a272.920381 272.920381 0 0 0-243.809524-128.24381V146.285714l243.809524-146.285714v538.185143zM0 146.285714l243.809524-146.285714v877.714286l-243.809524 146.285714V146.285714z" p-id="2031"></path><path d="M810.715429 1018.002286c0 0.975238-214.552381-203.483429-214.552381-321.974857a214.552381 214.552381 0 1 1 429.153523 0c0 118.491429-214.552381 321.048381-214.552381 321.974857z m3.120761-263.948191a73.142857 73.142857 0 1 0 0-146.285714 73.142857 73.142857 0 0 0 0 146.285714z" p-id="2032"></path></svg>