<?xml version="1.0" standalone="no"?><!DOCTYPE svg PUBLIC "-//W3C//DTD SVG 1.1//EN" "http://www.w3.org/Graphics/SVG/1.1/DTD/svg11.dtd"><svg t="1544602414101" class="icon" style="" viewBox="0 0 1024 1024" version="1.1" xmlns="http://www.w3.org/2000/svg" p-id="1086" xmlns:xlink="http://www.w3.org/1999/xlink" width="256" height="256"><defs><style type="text/css"></style></defs><path d="M441.6 793.6c12.8-12.8 12.8-38.4 0-51.2l-64-64 32-38.4 64 64c12.8 12.8 38.4 12.8 51.2 0l147.2-147.2c12.8-12.8 12.8-38.4 0-51.2l-64-64 32-32v-6.4l64 64c12.8 12.8 38.4 12.8 51.2 0l179.2-179.2c12.8-12.8 12.8-38.4 0-51.2L755.2 57.6c-12.8-12.8-38.4-12.8-51.2 0L531.2 236.8c-19.2 12.8-19.2 38.4 0 51.2l64 64-32 32-224-217.6c-12.8-12.8-38.4-12.8-51.2 0L140.8 313.6c-12.8 12.8-12.8 38.4 0 51.2l217.6 217.6-32 38.4v6.4l-64-64c-12.8-12.8-38.4-12.8-51.2 0L32 742.4c-12.8 12.8-12.8 38.4 0 51.2l179.2 179.2c12.8 12.8 38.4 12.8 51.2 0l179.2-179.2z m294.4-659.2l128 128L742.4 384l-128-128 121.6-121.6zM217.6 339.2l96-96 64 64-96 96-64-64z m96 96l96-96 192 192-102.4 96-185.6-192z m-76.8 454.4l-128-128 121.6-128 128 128-121.6 128z m710.4-396.8l-25.6-44.8c-6.4-12.8-19.2-12.8-32-6.4s-12.8 19.2-6.4 32c32 51.2 51.2 108.8 51.2 172.8 0 44.8-6.4 83.2-25.6 121.6-32 76.8-96 140.8-172.8 172.8-38.4 12.8-76.8 25.6-121.6 25.6s-89.6-12.8-134.4-32l-38.4-19.2c-12.8-6.4-25.6-6.4-32 6.4-6.4 12.8-6.4 25.6 6.4 32 19.2 6.4 32 12.8 51.2 19.2 51.2 19.2 102.4 32 153.6 32 51.2 0 96-12.8 140.8-25.6 89.6-38.4 160-108.8 198.4-198.4 19.2-44.8 25.6-89.6 25.6-140.8-6.4-44.8-19.2-102.4-38.4-147.2z m-211.2 268.8c-12.8 12.8-32 25.6-51.2 38.4-38.4 19.2-83.2 12.8-128 0-12.8-6.4-25.6 0-32 12.8-6.4 12.8 0 25.6 12.8 32 6.4 0 12.8 6.4 19.2 6.4 44.8 12.8 96 12.8 140.8-6.4 25.6-12.8 51.2-25.6 70.4-44.8 19.2-19.2 38.4-44.8 44.8-70.4 12.8-25.6 19.2-51.2 19.2-76.8v-19.2c0-12.8-6.4-25.6-6.4-38.4 0-6.4-6.4-12.8-6.4-19.2-6.4-12.8-19.2-19.2-32-12.8-19.2-6.4-25.6 6.4-19.2 19.2 6.4 12.8 12.8 32 12.8 44.8v19.2c0 19.2-6.4 44.8-12.8 64-6.4 19.2-19.2 38.4-32 51.2z" fill="" p-id="1087"></path></svg>