<?xml version="1.0" standalone="no"?><!DOCTYPE svg PUBLIC "-//W3C//DTD SVG 1.1//EN" "http://www.w3.org/Graphics/SVG/1.1/DTD/svg11.dtd"><svg t="1531812354473" class="icon" style="" viewBox="0 0 1024 1024" version="1.1" xmlns="http://www.w3.org/2000/svg" p-id="1837" xmlns:xlink="http://www.w3.org/1999/xlink" width="256" height="256"><defs><style type="text/css"></style></defs><path d="M756.342154 867.328H111.773538A111.064615 111.064615 0 0 1 0.787692 756.342154V111.773538A111.064615 111.064615 0 0 1 111.773538 0.787692h574.857847a39.384615 39.384615 0 0 1 0 78.769231H111.773538a32.295385 32.295385 0 0 0-32.216615 32.216615v644.489847a32.295385 32.295385 0 0 0 32.216615 32.216615h644.489847a32.295385 32.295385 0 0 0 32.216615-32.216615V566.980923a39.384615 39.384615 0 0 1 78.769231 0v189.282462a111.064615 111.064615 0 0 1-110.907077 111.064615z" fill="#2c2c2c" p-id="1838"></path><path d="M984.615385 1024H293.730462a39.384615 39.384615 0 0 1 0-78.769231H945.230769V561.230769a39.384615 39.384615 0 0 1 78.769231 0V984.615385a39.384615 39.384615 0 0 1-39.384615 39.384615zM984.615385 0a39.542154 39.542154 0 0 0-27.884308 11.500308L455.443692 512.787692a39.384615 39.384615 0 0 0 55.768616 55.768616L1012.499692 67.268923A39.384615 39.384615 0 0 0 984.615385 0z" fill="#2c2c2c" p-id="1839"></path><path d="M262.774154 278.528a39.384615 39.384615 0 0 0-27.884308 67.190154L457.649231 568.477538a39.463385 39.463385 0 0 0 55.768615 0.07877 39.384615 39.384615 0 0 0 0-55.689846L290.579692 290.028308a38.912 38.912 0 0 0-27.805538-11.500308z" fill="#2c2c2c" p-id="1840"></path></svg>