<?xml version="1.0" standalone="no"?><!DOCTYPE svg PUBLIC "-//W3C//DTD SVG 1.1//EN" "http://www.w3.org/Graphics/SVG/1.1/DTD/svg11.dtd"><svg t="1531877354956" class="icon" style="" viewBox="0 0 1024 1024" version="1.1" xmlns="http://www.w3.org/2000/svg" p-id="1889" xmlns:xlink="http://www.w3.org/1999/xlink" width="256" height="256"><defs><style type="text/css"></style></defs><path d="M512 42.666667C253.866667 42.666667 42.666667 251.733333 42.666667 512s211.2 469.333333 469.333333 469.333333c260.266667 0 469.333333-209.066667 469.333333-469.333333S772.266667 42.666667 512 42.666667zM386.133333 104.533333c-8.533333 10.666667-17.066667 21.333333-25.6 32 0 2.133333-2.133333 2.133333-2.133333 4.266667-17.066667 23.466667-32 51.2-44.8 81.066667 0 2.133333-2.133333 4.266667-2.133333 4.266667 0 2.133333-2.133333 4.266667-2.133333 6.4-25.6-12.8-49.066667-27.733333-70.4-44.8C279.466667 149.333333 330.666667 121.6 386.133333 104.533333zM204.8 215.466667c25.6 21.333333 53.333333 40.533333 87.466667 55.466667 0 2.133333-2.133333 4.266667-2.133333 4.266667-10.666667 32-19.2 68.266667-23.466667 104.533333 0 4.266667-2.133333 8.533333-2.133333 14.933333-2.133333 14.933333-4.266667 27.733333-4.266667 42.666667 0 6.4 0 10.666667-2.133333 17.066667 0 12.8 0 23.466667-2.133333 36.266667L85.333333 490.666667C91.733333 384 136.533333 288 204.8 215.466667zM85.333333 533.333333l170.666667 0c0 12.8 0 25.6 2.133333 36.266667 0 6.4 0 10.666667 2.133333 17.066667 2.133333 14.933333 2.133333 27.733333 4.266667 42.666667 0 4.266667 2.133333 8.533333 2.133333 14.933333 6.4 36.266667 14.933333 72.533333 23.466667 104.533333 0 2.133333 2.133333 4.266667 2.133333 4.266667-32 14.933333-61.866667 34.133333-87.466667 55.466667C136.533333 736 91.733333 640 85.333333 533.333333zM236.8 836.266667c21.333333-17.066667 44.8-32 70.4-44.8 0 2.133333 2.133333 4.266667 2.133333 6.4 0 2.133333 2.133333 4.266667 2.133333 4.266667 12.8 29.866667 27.733333 57.6 44.8 81.066667 0 2.133333 2.133333 2.133333 2.133333 4.266667 8.533333 10.666667 17.066667 21.333333 25.6 32C330.666667 902.4 279.466667 874.666667 236.8 836.266667zM490.666667 936.533333c-59.733333-12.8-110.933333-72.533333-145.066667-160 44.8-17.066667 93.866667-25.6 145.066667-27.733333L490.666667 936.533333zM490.666667 704c-57.6 2.133333-110.933333 12.8-160 29.866667-19.2-59.733333-29.866667-128-32-202.666667l192 0L490.666667 704zM490.666667 490.666667l-192 0c2.133333-74.666667 12.8-142.933333 32-202.666667 49.066667 17.066667 102.4 27.733333 160 29.866667L490.666667 490.666667zM490.666667 277.333333c-53.333333-2.133333-102.4-12.8-145.066667-27.733333 34.133333-89.6 87.466667-149.333333 145.066667-160L490.666667 277.333333zM938.666667 490.666667l-170.666667 0c0-12.8 0-25.6-2.133333-36.266667 0-6.4 0-10.666667-2.133333-17.066667-2.133333-14.933333-2.133333-27.733333-4.266667-42.666667 0-4.266667-2.133333-8.533333-2.133333-14.933333-6.4-36.266667-14.933333-72.533333-23.466667-104.533333 0-2.133333-2.133333-4.266667-2.133333-4.266667 32-14.933333 61.866667-34.133333 87.466667-55.466667C887.466667 288 932.266667 384 938.666667 490.666667zM787.2 187.733333c-21.333333 17.066667-44.8 32-70.4 44.8 0-2.133333-2.133333-4.266667-2.133333-6.4 0-2.133333-2.133333-4.266667-2.133333-4.266667-12.8-29.866667-27.733333-57.6-44.8-81.066667 0-2.133333-2.133333-2.133333-2.133333-4.266667-8.533333-10.666667-17.066667-21.333333-25.6-32C693.333333 121.6 744.533333 149.333333 787.2 187.733333zM533.333333 87.466667c59.733333 12.8 110.933333 72.533333 145.066667 160-44.8 17.066667-93.866667 25.6-145.066667 27.733333L533.333333 87.466667zM533.333333 320c57.6-2.133333 110.933333-12.8 160-29.866667 19.2 59.733333 29.866667 128 32 202.666667l-192 0L533.333333 320zM533.333333 533.333333l192 0c-2.133333 74.666667-12.8 142.933333-32 202.666667-49.066667-17.066667-102.4-27.733333-160-29.866667L533.333333 533.333333zM533.333333 936.533333 533.333333 746.666667c53.333333 2.133333 102.4 12.8 145.066667 27.733333C644.266667 864 593.066667 923.733333 533.333333 936.533333zM637.866667 919.466667c8.533333-10.666667 17.066667-21.333333 25.6-32 0-2.133333 2.133333-2.133333 2.133333-4.266667 17.066667-23.466667 32-51.2 44.8-81.066667 0-2.133333 2.133333-4.266667 2.133333-4.266667 0-2.133333 2.133333-4.266667 2.133333-6.4 25.6 12.8 49.066667 27.733333 70.4 44.8C744.533333 874.666667 693.333333 902.4 637.866667 919.466667zM819.2 808.533333c-25.6-21.333333-53.333333-40.533333-87.466667-55.466667 0-2.133333 2.133333-4.266667 2.133333-4.266667 10.666667-32 19.2-68.266667 23.466667-104.533333 0-4.266667 2.133333-8.533333 2.133333-14.933333 2.133333-14.933333 4.266667-27.733333 4.266667-42.666667 0-6.4 0-10.666667 2.133333-17.066667 0-12.8 0-23.466667 2.133333-36.266667l170.666667 0C932.266667 640 887.466667 736 819.2 808.533333z" p-id="1890"></path></svg>